# xmcd
#
# Track frame offsets: 
#        150
#        22245
#        40576
#        65523
#        88615
#        115431
#        143480
#        172640
#        197677
#        225136
#        247345
#        278404
#        301652
#        329524
#
# Disc length: 4696 seconds
#
# Revision: 0
# Processed by: cddbd v1.5.2PL0 Copyright (c) Steve Scherf et al.
# Submitted via: ExactAudioCopy v0.99pb5
#
DISCID=b112560e
DTITLE=Various Artist - Интимное настроение
DYEAR=2010
DGENRE=Instrumental
TTITLE0=Emptiness (Frenesia)
TTITLE1=Love Mood (Dr. Tikov)
TTITLE2=Touch to Summer (J-vol)
TTITLE3=Perfect Love (Tim. On)
TTITLE4=Perfection Girl (Sacral Reason)
TTITLE5=City Eternal Dreams (Frenesia)
TTITLE6=Dream Traveller (Mushroom Lab)
TTITLE7=67 Notes (Buddysense)
TTITLE8=New Jazz (These)
TTITLE9=Something Down (Vjik 72)
TTITLE10=Sex in City (Tim. On)
TTITLE11=Reggae Machine (Sonnie Mishki)
TTITLE12=Oazis (C. J. Catalizer)
TTITLE13=Autumn Style (VS Vladovsky) 
EXTD=
EXTT0=
EXTT1=
EXTT2=
EXTT3=
EXTT4=
EXTT5=
EXTT6=
EXTT7=
EXTT8=
EXTT9=
EXTT10=
EXTT11=
EXTT12=
EXTT13=
PLAYORDER=
